<?xml version="1.0" encoding="UTF-8" standalone="no"?>
<!-- Created with Inkscape (http://www.inkscape.org/) -->

<svg
   xmlns:dc="http://purl.org/dc/elements/1.1/"
   xmlns:cc="http://creativecommons.org/ns#"
   xmlns:rdf="http://www.w3.org/1999/02/22-rdf-syntax-ns#"
   xmlns:svg="http://www.w3.org/2000/svg"
   xmlns="http://www.w3.org/2000/svg"
   xmlns:xlink="http://www.w3.org/1999/xlink"
   xmlns:sodipodi="http://sodipodi.sourceforge.net/DTD/sodipodi-0.dtd"
   xmlns:inkscape="http://www.inkscape.org/namespaces/inkscape"
   width="297mm"
   height="210mm"
   viewBox="0 0 1052.3622 744.09448"
   id="svg3399"
   version="1.1"
   inkscape:version="0.91 r13725"
   sodipodi:docname="pagina2.svg">
  <defs
     id="defs3401">
    <clipPath
       clipPathUnits="userSpaceOnUse"
       id="clipPath4225">
      <rect
         style="color:#000000;display:inline;overflow:visible;visibility:visible;opacity:0.57900002;fill:#ff0000;fill-opacity:1;fill-rule:nonzero;stroke:none;stroke-width:1;stroke-linecap:round;stroke-linejoin:round;stroke-miterlimit:4;stroke-dasharray:3, 3;stroke-dashoffset:0;stroke-opacity:1;marker:none;enable-background:accumulate"
         id="rect4227"
         width="175.71429"
         height="469.28571"
         x="115"
         y="450.93365" />
    </clipPath>
    <linearGradient
       inkscape:collect="always"
       xlink:href="#linearGradient4712"
       id="linearGradient4718"
       x1="375.78049"
       y1="186.64793"
       x2="370.09128"
       y2="929.50507"
       gradientUnits="userSpaceOnUse"
       gradientTransform="matrix(0.71523697,0,0,0.81849202,-5.2269535,263.03992)" />
    <linearGradient
       inkscape:collect="always"
       id="linearGradient4712">
      <stop
         style="stop-color:#786daa;stop-opacity:1"
         offset="0"
         id="stop4714" />
      <stop
         style="stop-color:#8dc8ab;stop-opacity:1"
         offset="1"
         id="stop4716" />
    </linearGradient>
    <linearGradient
       inkscape:collect="always"
       xlink:href="#linearGradient4712"
       id="linearGradient3574"
       gradientUnits="userSpaceOnUse"
       gradientTransform="matrix(0.71523434,0,0,0.82059578,520.95514,261.09658)"
       x1="375.78049"
       y1="186.64793"
       x2="370.09128"
       y2="929.50507" />
    <clipPath
       clipPathUnits="userSpaceOnUse"
       id="clipPath4240">
      <rect
         style="color:#000000;display:inline;overflow:visible;visibility:visible;opacity:0.45500004;fill:#ffffff;fill-opacity:1;fill-rule:nonzero;stroke:none;stroke-width:1;stroke-linecap:round;stroke-linejoin:round;stroke-miterlimit:4;stroke-dasharray:3, 3;stroke-dashoffset:0;stroke-opacity:1;marker:none;enable-background:accumulate"
         id="rect4242"
         width="796.29578"
         height="309.90686"
         x="-1201.1487"
         y="370.17371" />
    </clipPath>
    <clipPath
       clipPathUnits="userSpaceOnUse"
       id="clipPath5623">
      <rect
         style="color:#000000;display:inline;overflow:visible;visibility:visible;opacity:0.45500004;fill:#ffffff;fill-opacity:1;fill-rule:nonzero;stroke:none;stroke-width:1;stroke-linecap:round;stroke-linejoin:round;stroke-miterlimit:4;stroke-dasharray:3, 3;stroke-dashoffset:0;stroke-opacity:1;marker:none;enable-background:accumulate"
         id="rect5625"
         width="990.93359"
         height="141.2373"
         x="37.142853"
         y="359.69632"
         ry="0"
         transform="matrix(0.85677887,-0.51568398,0.51568398,0.85677887,0,0)" />
    </clipPath>
    <clipPath
       clipPathUnits="userSpaceOnUse"
       id="clipPath4332">
      <rect
         style="color:#000000;clip-rule:nonzero;display:inline;overflow:visible;visibility:visible;opacity:0.78899997;isolation:auto;mix-blend-mode:normal;color-interpolation:sRGB;color-interpolation-filters:linearRGB;solid-color:#000000;solid-opacity:1;fill:#ffff00;fill-opacity:1;fill-rule:evenodd;stroke:none;stroke-width:4.44899988;stroke-linecap:butt;stroke-linejoin:miter;stroke-miterlimit:4;stroke-dasharray:none;stroke-dashoffset:0;stroke-opacity:1;marker:none;color-rendering:auto;image-rendering:auto;shape-rendering:auto;text-rendering:auto;enable-background:accumulate"
         id="rect4334"
         width="482.46591"
         height="214.32777"
         x="1213.5731"
         y="499.18491" />
    </clipPath>
  </defs>
  <sodipodi:namedview
     id="base"
     pagecolor="#ffffff"
     bordercolor="#666666"
     borderopacity="1.0"
     inkscape:pageopacity="0.0"
     inkscape:pageshadow="2"
     inkscape:zoom="0.54414063"
     inkscape:cx="951.28876"
     inkscape:cy="485.47489"
     inkscape:document-units="px"
     inkscape:current-layer="layer1"
     showgrid="false"
     inkscape:window-width="1920"
     inkscape:window-height="1014"
     inkscape:window-x="0"
     inkscape:window-y="27"
     inkscape:window-maximized="1"
     inkscape:snap-page="false"
     inkscape:snap-nodes="false"
     inkscape:snap-bbox="true"
     inkscape:bbox-nodes="true"
     showguides="true"
     inkscape:guide-bbox="true">
    <sodipodi:guide
       position="1143.4927,880.85301"
       orientation="0,1"
       id="guide4965" />
  </sodipodi:namedview>
  <metadata
     id="metadata3404">
    <rdf:RDF>
      <cc:Work
         rdf:about="">
        <dc:format>image/svg+xml</dc:format>
        <dc:type
           rdf:resource="http://purl.org/dc/dcmitype/StillImage" />
        <dc:title />
      </cc:Work>
    </rdf:RDF>
  </metadata>
  <g
     inkscape:label="Capa 1"
     inkscape:groupmode="layer"
     id="layer1"
     transform="translate(0,-308.26772)">
    <image
       sodipodi:absref="/home/creawww/KGESTION/070_novaterra/diseños/folleto viaje a al dignidad/imagenes/cabecera.png"
       xlink:href="imagenes/cabecera.png"
       y="331.00226"
       x="26.761759"
       id="image5051"
       preserveAspectRatio="none"
       height="141.21825"
       width="1008.0079" />
    <path
       sodipodi:nodetypes="csccsccc"
       inkscape:connector-curvature="0"
       id="path4963"
       d="m 554.50824,425.58762 438.4912,-0.18443 c 22.90016,-0.01 41.46226,21.56705 41.46226,45.93473 0.9048,183.20049 0.3328,547.47448 0.3328,547.47448 l -439.03626,-0.3788 c -22.90017,-0.02 -41.33606,-19.61728 -41.33606,-43.98496 0.15229,-182.9535 -0.24877,-365.90774 0.0861,-548.86102 z"
       style="color:#000000;display:inline;overflow:visible;visibility:visible;opacity:0.6;fill:#ffffff;fill-opacity:1;fill-rule:nonzero;stroke:none;stroke-width:1;stroke-linecap:round;stroke-linejoin:round;stroke-miterlimit:4;stroke-dasharray:3, 3;stroke-dashoffset:0;stroke-opacity:1;marker:none;enable-background:accumulate" />
    <path
       style="color:#000000;display:inline;overflow:visible;visibility:visible;opacity:0.6;fill:#ffffff;fill-opacity:1;fill-rule:nonzero;stroke:none;stroke-width:1;stroke-linecap:round;stroke-linejoin:round;stroke-miterlimit:4;stroke-dasharray:3, 3;stroke-dashoffset:0;stroke-opacity:1;marker:none;enable-background:accumulate"
       d="m 27.22892,425.58794 438.4912,-0.18475 c 22.90018,-0.01 42.85129,19.07464 42.85129,43.48451 0.90479,183.51769 -1.4527,367.06162 0.459,550.5727 l -440.55149,0 c -22.900179,0 -41.336063,-19.65126 -41.336063,-44.06113 0.15229,-183.27027 -0.248768,-366.54128 0.08606,-549.81133 z"
       id="rect4960"
       inkscape:connector-curvature="0"
       sodipodi:nodetypes="csccscc" />
    <path
       style="color:#000000;display:inline;overflow:visible;visibility:visible;fill:none;stroke:url(#linearGradient4718);stroke-width:1.37722433;stroke-linecap:butt;stroke-linejoin:miter;stroke-miterlimit:4;stroke-dasharray:none;stroke-dashoffset:0;stroke-opacity:1;marker:none;enable-background:accumulate"
       d="m 508.83899,1018.7613 -441.288028,0 c -22.355093,0 -40.3521,-20.59506 -40.3521,-46.17738 -0.238658,-181.55938 -0.04086,-546.90955 -0.04086,-546.90955 l 15.906651,-0.11654 m -4.23761,0 428.964387,0 c 22.35505,0 40.35208,20.59518 40.35208,46.17753 l 0,546.56094"
       id="rect3812-4"
       inkscape:connector-curvature="0"
       sodipodi:nodetypes="csccccssc" />
    <flowRoot
       transform="translate(-38.727396,249.09817)"
       style="font-style:normal;font-variant:normal;font-weight:200;font-stretch:normal;font-size:15px;line-height:100%;font-family:'Titillium Web';-inkscape-font-specification:'Titillium Web, Ultra-Light';text-align:start;letter-spacing:0px;word-spacing:-0.01px;writing-mode:lr-tb;text-anchor:start;fill:#000000;fill-opacity:1;stroke:none;stroke-width:1px;stroke-linecap:butt;stroke-linejoin:miter;stroke-opacity:1"
       id="flowRoot4229"
       xml:space="preserve"><flowRegion
         id="flowRegion4231"><rect
           style="font-style:normal;font-variant:normal;font-weight:200;font-stretch:normal;font-size:15px;line-height:100%;font-family:'Titillium Web';-inkscape-font-specification:'Titillium Web, Ultra-Light';text-align:start;writing-mode:lr-tb;text-anchor:start"
           y="249.50507"
           x="94.285713"
           height="514.89789"
           width="442.23779"
           id="rect4233" /></flowRegion><flowPara
         id="flowPara3576">En Novaterra trabajamos con personas que han encontrado múltiples adversidades en la vida: familias desestructuradas, barrios marginales, violencia de género, malos tratos familiares, discapacidad, adicciones, prisión... Situaciones que conducen a la exclusión social.</flowPara><flowPara
         id="flowPara3578" /><flowPara
         id="flowPara3580">Atendemos a estas personas conscientes del sufrimiento del que vienen y de que para ayudarles en el viaje a su inserción se requiere un trabajo hecho con<flowSpan
   style="font-style:normal;font-variant:normal;font-weight:bold;font-stretch:normal;font-family:'Titillium Web';-inkscape-font-specification:'Titillium Web Bold'"
   id="flowSpan6402">  calidez, calidad y profesionalidad.</flowSpan></flowPara><flowPara
         id="flowPara3582">Las estaciones por las que pasamos son:</flowPara><flowPara
         id="flowPara3584" /><flowPara
         id="flowPara3586">La <flowSpan
   style="font-style:normal;font-variant:normal;font-weight:bold;font-stretch:normal;font-family:'Titillium Web';-inkscape-font-specification:'Titillium Web Bold'"
   id="flowSpan6404">Acogida </flowSpan>pausada y personalizada: escuchar sus historias, reaccionar a sus necesidades, coordinarse con servicios sociales u otras entidades derivantes de la persona.</flowPara><flowPara
         id="flowPara3588" /><flowPara
         id="flowPara3590">El diseño de un<flowSpan
   style="font-style:normal;font-variant:normal;font-weight:bold;font-stretch:normal;font-family:'Titillium Web';-inkscape-font-specification:'Titillium Web Bold'"
   id="flowSpan6406"> Itinerario </flowSpan>de inserción, basado en el análisis de cada situación, con objetivos y etapas y con seguimiento de su evolución.</flowPara><flowPara
         id="flowPara3592" /><flowPara
         id="flowPara3594">El refuerzo de <flowSpan
   style="font-style:normal;font-variant:normal;font-weight:bold;font-stretch:normal;font-family:'Titillium Web';-inkscape-font-specification:'Titillium Web Bold'"
   id="flowSpan6408">habilidades</flowSpan> sociales, para que sepan abordar una entrevista de trabajo, el uso de Internet, sus derechos ciudadanos y laborales, etc.</flowPara><flowPara
         id="flowPara3596" /><flowPara
         id="flowPara3598">La <flowSpan
   style="font-style:normal;font-variant:normal;font-weight:bold;font-stretch:normal;font-family:'Titillium Web';-inkscape-font-specification:'Titillium Web Bold'"
   id="flowSpan6410">formación </flowSpan>en oficios  en los que conseguirań trabajo: camareros, reponedores, limpieza, conserjes, peones,  etc.</flowPara><flowPara
         id="flowPara3600" /><flowPara
         id="flowPara3602">La búsqueda de <flowSpan
   style="font-style:normal;font-variant:normal;font-weight:bold;font-stretch:normal;font-family:'Titillium Web';-inkscape-font-specification:'Titillium Web Bold'"
   id="flowSpan6412">empleo </flowSpan>en empresas promovidas por Novaterra o empresas del mercado y el <flowSpan
   style="font-style:normal;font-variant:normal;font-weight:bold;font-stretch:normal;font-family:'Titillium Web';-inkscape-font-specification:'Titillium Web Bold'"
   id="flowSpan6414">acompañamiento</flowSpan> en las incidencias que puedan encontrarse.</flowPara><flowPara
         id="flowPara3604" /><flowPara
         id="flowPara3606">Un proceso que tiene un coste económico importante. </flowPara><flowPara
         id="flowPara3608" /><flowPara
         id="flowPara3610">Pero que tienen un beneficio aún mayor: muchas personas recuperan las ganas de vivir, vuelven a sentirse útiles, ven luz en su camino y van restableciendo su <flowSpan
   style="font-style:normal;font-variant:normal;font-weight:bold;font-stretch:normal;font-family:'Titillium Web';-inkscape-font-specification:'Titillium Web Bold'"
   id="flowSpan6416">dignidad. </flowSpan></flowPara><flowPara
         id="flowPara3612" /><flowPara
         id="flowPara3614" /></flowRoot>    <text
       sodipodi:linespacing="100%"
       id="text3478"
       y="459.00485"
       x="551.67645"
       style="font-style:normal;font-variant:normal;font-weight:bold;font-stretch:normal;font-size:40.91875076px;line-height:100%;font-family:Zekton;-inkscape-font-specification:'Zekton, Bold';text-align:start;letter-spacing:0px;word-spacing:-0.01487966px;writing-mode:lr-tb;text-anchor:start;fill:#ffffff;fill-opacity:1;stroke:#786daa;stroke-width:1.79999995;stroke-linecap:butt;stroke-linejoin:miter;stroke-miterlimit:4;stroke-dasharray:none;stroke-opacity:1;"
       xml:space="preserve"><tspan
         sodipodi:role="line"
         id="tspan4427"
         x="551.67645"
         y="459.00485">Los viajer@s</tspan></text>
    <path
       sodipodi:nodetypes="cscccssc"
       inkscape:connector-curvature="0"
       id="path3482"
       d="m 907.34586,1018.7604 -313.61307,0 c -22.35501,0 -40.35195,-20.64795 -40.35195,-46.29603 -0.23968,-182.81018 0.34276,-365.62224 -0.0458,-548.43215 m 0.6991,0 439.93765,0 c 22.35501,0 40.35191,20.64812 40.35191,46.29621 l 0,518.39323"
       style="color:#000000;display:inline;overflow:visible;visibility:visible;fill:none;stroke:url(#linearGradient3574);stroke-width:1.37899077;stroke-linecap:butt;stroke-linejoin:miter;stroke-miterlimit:4;stroke-dasharray:none;stroke-dashoffset:0;stroke-opacity:1;marker:none;enable-background:accumulate" />
    <path
       sodipodi:nodetypes="ccccccccccccc"
       inkscape:export-ydpi="90"
       inkscape:export-xdpi="90"
       inkscape:export-filename="/home/creawww/KGESTION/070/diseños/jornadas para el compromiso/g184.png"
       d="m 856.98567,962.88259 41.77995,0.1562 -0.16894,41.45551 -8.09505,-14.68991 -7.44704,0 0,24.55061 7.38967,0.066 -0.13125,-14.63051 8.08865,14.56461 2.29062,4.1854 -43.96144,0.052 0.25627,-55.70971 z"
       style="fill:none;stroke:#8dc8ab;stroke-width:1.79999995;stroke-miterlimit:4;stroke-dasharray:none;stroke-opacity:1"
       id="path3484"
       inkscape:connector-curvature="0" />
    <path
       sodipodi:nodetypes="cccccccccc"
       inkscape:export-ydpi="90"
       inkscape:export-xdpi="90"
       inkscape:export-filename="/home/creawww/KGESTION/070/diseños/jornadas para el compromiso/g184.png"
       d="m 899.38886,989.80399 6.46107,0 0.13125,24.68101 -6.43949,0.053 2.09464,3.9609 9.79986,-0.022 -0.15625,-55.42221 -11.68013,-0.015 -0.20968,26.7599 z"
       style="fill:none;stroke:#8dc8ab;stroke-width:1.79999995;stroke-miterlimit:4;stroke-dasharray:none;stroke-opacity:1"
       id="path3486"
       inkscape:connector-curvature="0" />
    <g
       style="fill:none;stroke:#8dc8ab;stroke-width:1.15240765;stroke-miterlimit:4;stroke-dasharray:none;stroke-opacity:1"
       inkscape:export-ydpi="90"
       inkscape:export-xdpi="90"
       inkscape:export-filename="/home/creawww/KGESTION/070/diseños/jornadas para el compromiso/g184.png"
       transform="matrix(1.5527981,0,0,-1.5711504,1000.727,993.13499)"
       id="g3488">
      <path
         inkscape:connector-curvature="0"
         id="path3490"
         style="fill:none;stroke:#8dc8ab;stroke-width:1.15240765;stroke-miterlimit:4;stroke-dasharray:none;stroke-opacity:1"
         d="m 0,0 0,0.323 -2.608,0 0,-0.277 c 0,-1.037 -0.071,-1.956 -1.194,-1.956 -1.169,0 -1.267,1.065 -1.267,3.955 0,2.199 0.057,3.587 1.28,3.587 1.037,0 1.123,-0.821 1.123,-1.652 l 0,-0.276 2.58,0 0,0.366 c 0,2.697 -1.472,3.311 -3.734,3.311 -3.644,0 -3.875,-2.218 -3.875,-5.661 0,-3.948 0.672,-5.378 3.906,-5.378 C -1.15,-3.658 0,-2.697 0,0" />
    </g>
    <path
       sodipodi:nodetypes="ccccc"
       inkscape:export-ydpi="90"
       inkscape:export-xdpi="90"
       inkscape:export-filename="/home/creawww/KGESTION/070/diseños/jornadas para el compromiso/g184.png"
       inkscape:connector-curvature="0"
       id="path3492"
       style="fill:none;stroke:#8dc8ab;stroke-width:1.79999995;stroke-miterlimit:4;stroke-dasharray:none;stroke-opacity:1"
       d="m 1002.3388,981.92829 4.0778,0 0,16.5646 -4.0778,0 z" />
    <g
       style="fill:none;stroke:#8dc8ab;stroke-width:1.15240765;stroke-miterlimit:4;stroke-dasharray:none;stroke-opacity:1"
       inkscape:export-ydpi="90"
       inkscape:export-xdpi="90"
       inkscape:export-filename="/home/creawww/KGESTION/070/diseños/jornadas para el compromiso/g184.png"
       transform="matrix(1.5527981,0,0,-1.5711504,1017.8717,977.38969)"
       id="g3494">
      <path
         inkscape:connector-curvature="0"
         id="path3496"
         style="fill:none;stroke:#8dc8ab;stroke-width:1.15240765;stroke-miterlimit:4;stroke-dasharray:none;stroke-opacity:1"
         d="m 0,0 -2.292,0 -1.224,-2.102 1.359,0 L 0,0 Z" />
    </g>
    <g
       style="fill:none;stroke:#8dc8ab;stroke-width:1.15240765;stroke-miterlimit:4;stroke-dasharray:none;stroke-opacity:1"
       inkscape:export-ydpi="90"
       inkscape:export-xdpi="90"
       inkscape:export-filename="/home/creawww/KGESTION/070/diseños/jornadas para el compromiso/g184.png"
       transform="matrix(1.5527981,0,0,-1.5711504,959.72969,998.49289)"
       id="g3498">
      <path
         inkscape:connector-curvature="0"
         id="path3500"
         style="fill:none;stroke:#8dc8ab;stroke-width:1.15240765;stroke-miterlimit:4;stroke-dasharray:none;stroke-opacity:1"
         d="m 0,0 0,10.543 -2.13,0 0,-8.606 -2.04,8.606 -3.804,0 0,-10.543 2.141,0 0,8.587 L -3.791,0 0,0 Z" />
    </g>
    <g
       style="fill:none;stroke:#8dc8ab;stroke-width:1.15240765;stroke-miterlimit:4;stroke-dasharray:none;stroke-opacity:1"
       inkscape:export-ydpi="90"
       inkscape:export-xdpi="90"
       inkscape:export-filename="/home/creawww/KGESTION/070/diseños/jornadas para el compromiso/g184.png"
       transform="matrix(1.5527981,0,0,-1.5711504,931.45029,984.65479)"
       id="g3502">
      <path
         inkscape:connector-curvature="0"
         id="path3504"
         style="fill:none;stroke:#8dc8ab;stroke-width:1.15240765;stroke-miterlimit:4;stroke-dasharray:none;stroke-opacity:1"
         d="m 0,0 0,1.735 -5.933,0 0,-10.543 2.623,0 0,4.55 3.196,0 0,1.66 -3.196,0 L -3.31,0 0,0 Z" />
    </g>
    <g
       style="fill:none;stroke:#8dc8ab;stroke-width:1.15240765;stroke-miterlimit:4;stroke-dasharray:none;stroke-opacity:1"
       inkscape:export-ydpi="90"
       inkscape:export-xdpi="90"
       inkscape:export-filename="/home/creawww/KGESTION/070/diseños/jornadas para el compromiso/g184.png"
       transform="matrix(1.5527981,0,0,-1.5711504,1023.5337,1018.1152)"
       id="g3506">
      <path
         inkscape:connector-curvature="0"
         id="path3508"
         style="fill:none;stroke:#8dc8ab;stroke-width:1.15240765;stroke-miterlimit:4;stroke-dasharray:none;stroke-opacity:1"
         d="m 0,0 2.797,10.478 3.167,0 L 8.57,0 5.865,0 5.647,1.027 2.908,1.027 2.68,0 0,0 Z m 3.5,3.611 1.599,0 L 4.326,7.298 3.5,3.611 Z m -8.848,2.34 1.455,0 c 0.382,0 0.649,0.07 0.807,0.216 0.153,0.146 0.232,0.394 0.232,0.735 0,0.344 -0.071,0.577 -0.22,0.714 -0.147,0.131 -0.442,0.202 -0.88,0.202 l -1.394,0 0,-1.867 z m 2.374,4.527 c 0.56,0 1.012,-0.048 1.349,-0.132 0.335,-0.088 0.601,-0.226 0.788,-0.408 0.238,-0.235 0.425,-0.543 0.553,-0.934 0.126,-0.39 0.187,-0.839 0.187,-1.349 0,-0.62 -0.091,-1.164 -0.281,-1.634 -0.19,-0.468 -0.449,-0.805 -0.78,-1.017 0.284,-0.193 0.484,-0.432 0.596,-0.718 0.115,-0.282 0.184,-0.792 0.204,-1.515 0.004,-0.079 0.004,-0.187 0.008,-0.327 0.043,-1.37 0.155,-2.13 0.342,-2.285 l 0,-0.159 -2.776,0 c -0.083,0.22 -0.134,0.646 -0.141,1.29 -0.008,0.37 -0.013,0.657 -0.031,0.863 -0.023,0.379 -0.105,0.648 -0.235,0.805 -0.132,0.156 -0.353,0.235 -0.666,0.235 l -1.491,0 0,-3.193 -2.532,0 0,10.478 4.906,0 z m -11.221,-4.527 1.457,0 c 0.384,0 0.647,0.07 0.804,0.216 0.155,0.146 0.234,0.394 0.234,0.735 0,0.344 -0.072,0.577 -0.22,0.714 -0.148,0.131 -0.441,0.202 -0.879,0.202 l -1.396,0 0,-1.867 z m 2.377,4.527 c 0.56,0 1.01,-0.048 1.347,-0.132 0.333,-0.088 0.595,-0.226 0.789,-0.408 0.24,-0.235 0.421,-0.543 0.553,-0.934 0.123,-0.39 0.188,-0.839 0.188,-1.349 0,-0.62 -0.095,-1.164 -0.283,-1.634 -0.192,-0.468 -0.452,-0.805 -0.782,-1.017 0.286,-0.193 0.489,-0.432 0.602,-0.718 0.114,-0.282 0.18,-0.792 0.2,-1.515 0.002,-0.079 0.004,-0.187 0.009,-0.327 0.042,-1.37 0.154,-2.13 0.34,-2.285 l 0,-0.159 -2.774,0 c -0.084,0.22 -0.133,0.646 -0.142,1.29 -0.006,0.37 -0.015,0.657 -0.033,0.863 -0.022,0.379 -0.105,0.648 -0.235,0.805 -0.131,0.156 -0.351,0.235 -0.664,0.235 l -1.492,0 0,-3.193 -2.533,0 0,10.478 4.91,0 z M -24.57,0 l 0,10.478 6.832,0 0,-2.575 -4.332,0 0,-1.243 3.507,0 0,-2.59 -3.507,0 0,-1.374 4.545,0 0,-2.696 -7.045,0 z m -5.561,0 0,7.818 -2.331,0 0,2.66 7.171,0 0,-2.66 -2.342,0 0,-7.818 -2.498,0 z m -10.301,0 2.793,10.478 3.165,0 2.609,-10.478 -2.705,0 -0.213,1.027 -2.744,0 L -37.756,0 -40.432,0 Z m 3.496,3.611 1.601,0 -0.78,3.687 -0.821,-3.687 z M -45.032,0 l -2.849,10.478 2.819,0 1.367,-7.013 1.439,7.013 2.79,0 L -42.428,0 -45.032,0 Z m -11.301,5.232 c 0,1.821 0.362,3.2 1.094,4.124 0.728,0.928 1.811,1.392 3.24,1.392 1.437,0 2.514,-0.464 3.245,-1.392 0.728,-0.924 1.096,-2.303 1.096,-4.124 0,-1.819 -0.368,-3.193 -1.096,-4.117 -0.731,-0.927 -1.808,-1.391 -3.245,-1.391 -1.429,0 -2.512,0.464 -3.24,1.391 -0.732,0.924 -1.094,2.298 -1.094,4.117 m 2.687,0 c 0,-0.908 0.137,-1.606 0.424,-2.089 0.282,-0.48 0.688,-0.723 1.223,-0.723 0.536,0 0.943,0.243 1.229,0.723 0.283,0.483 0.424,1.181 0.424,2.089 0,0.916 -0.141,1.616 -0.424,2.102 -0.286,0.488 -0.693,0.733 -1.229,0.733 -0.535,0 -0.941,-0.245 -1.223,-0.733 -0.287,-0.486 -0.424,-1.186 -0.424,-2.102 M -65.232,0 l 0,10.478 2.954,0 2.487,-6.038 0,6.038 2.419,0 0,-10.478 -2.8,0 -2.706,6.135 0,-6.135 -2.354,0 z" />
    </g>
    <g
       style="fill:none;stroke:#8dc8ab;stroke-width:1.15240765;stroke-miterlimit:4;stroke-dasharray:none;stroke-opacity:1"
       inkscape:export-ydpi="90"
       inkscape:export-xdpi="90"
       inkscape:export-filename="/home/creawww/KGESTION/070/diseños/jornadas para el compromiso/g184.png"
       transform="matrix(1.5527981,0,0,-1.5711504,944.96873,992.95079)"
       id="g3510">
      <path
         inkscape:connector-curvature="0"
         id="path3512"
         style="fill:none;stroke:#8dc8ab;stroke-width:1.15240765;stroke-miterlimit:4;stroke-dasharray:none;stroke-opacity:1"
         d="m 0,0 0,7.016 -2.563,0 0,-6.984 c 0,-1.153 -0.166,-2.059 -1.345,-2.059 -1.139,0 -1.328,0.891 -1.328,2.088 l 0,6.955 -2.612,0 0,-6.984 c 0,-2.626 1.17,-3.807 3.924,-3.807 C -1.3,-3.775 0,-2.787 0,0" />
    </g>
    <g
       style="fill:none;stroke:#8dc8ab;stroke-width:1.15240765;stroke-miterlimit:4;stroke-dasharray:none;stroke-opacity:1"
       inkscape:export-ydpi="90"
       inkscape:export-xdpi="90"
       inkscape:export-filename="/home/creawww/KGESTION/070/diseños/jornadas para el compromiso/g184.png"
       transform="matrix(1.5527981,0,0,-1.5711504,944.96873,992.95079)"
       id="g3514">
      <path
         inkscape:connector-curvature="0"
         id="path3516"
         style="fill:none;stroke:#8dc8ab;stroke-width:1.15240765;stroke-miterlimit:4;stroke-dasharray:none;stroke-opacity:1"
         d="m 0,0 0,7.016 -2.563,0 0,-6.984 c 0,-1.153 -0.166,-2.059 -1.345,-2.059 -1.139,0 -1.328,0.891 -1.328,2.088 l 0,6.955 -2.612,0 0,-6.984 c 0,-2.626 1.17,-3.807 3.924,-3.807 C -1.3,-3.775 0,-2.787 0,0" />
    </g>
    <g
       style="fill:none;stroke:#8dc8ab;stroke-width:1.15240765;stroke-miterlimit:4;stroke-dasharray:none;stroke-opacity:1"
       inkscape:export-ydpi="90"
       inkscape:export-xdpi="90"
       inkscape:export-filename="/home/creawww/KGESTION/070/diseños/jornadas para el compromiso/g184.png"
       transform="matrix(1.5527981,0,0,-1.5711504,970.07619,990.10759)"
       id="g3518">
      <path
         inkscape:connector-curvature="0"
         id="path3520"
         style="fill:none;stroke:#8dc8ab;stroke-width:1.15240765;stroke-miterlimit:4;stroke-dasharray:none;stroke-opacity:1"
         d="m 0,0 c 0,-2.157 -0.06,-3.589 -1.733,-3.589 l -0.746,0 0,7.044 0.73,0 C -0.175,3.455 0,2.463 0,0 m 2.637,0.221 c 0,3.586 -0.408,4.985 -4.283,4.985 l -3.441,0 0,-10.543 3.425,0 c 4.083,0 4.299,1.692 4.299,5.558" />
    </g>
    <g
       style="fill:none;stroke:#8dc8ab;stroke-width:1.15240765;stroke-miterlimit:4;stroke-dasharray:none;stroke-opacity:1"
       inkscape:export-ydpi="90"
       inkscape:export-xdpi="90"
       inkscape:export-filename="/home/creawww/KGESTION/070/diseños/jornadas para el compromiso/g184.png"
       transform="matrix(1.5527981,0,0,-1.5711504,1022.125,998.47899)"
       id="g3522">
      <path
         inkscape:connector-curvature="0"
         id="path3524"
         style="fill:none;stroke:#8dc8ab;stroke-width:1.15240765;stroke-miterlimit:4;stroke-dasharray:none;stroke-opacity:1"
         d="m 0,0 0,10.478 2.955,0 2.486,-6.037 0,6.037 2.419,0 L 7.86,0 5.062,0 2.354,6.135 2.354,0 0,0 Z" />
    </g>
    <g
       style="fill:none;stroke:#8dc8ab;stroke-width:1.15240765;stroke-miterlimit:4;stroke-dasharray:none;stroke-opacity:1"
       inkscape:export-ydpi="90"
       inkscape:export-xdpi="90"
       inkscape:export-filename="/home/creawww/KGESTION/070/diseños/jornadas para el compromiso/g184.png"
       transform="matrix(1.5527981,0,0,-1.5711504,974.53279,998.39459)"
       id="g3526">
      <path
         inkscape:connector-curvature="0"
         id="path3528"
         style="fill:none;stroke:#8dc8ab;stroke-width:1.15240765;stroke-miterlimit:4;stroke-dasharray:none;stroke-opacity:1"
         d="m 0,0 2.816,10.546 3.188,0 L 8.627,0 5.906,0 5.687,1.035 2.931,1.035 2.695,0 0,0 Z m 3.522,3.632 1.609,0 -0.779,3.712 -0.83,-3.712 z" />
    </g>
    <g
       style="fill:none;stroke:#8dc8ab;stroke-width:1.15240765;stroke-miterlimit:4;stroke-dasharray:none;stroke-opacity:1"
       inkscape:export-ydpi="90"
       inkscape:export-xdpi="90"
       inkscape:export-filename="/home/creawww/KGESTION/070/diseños/jornadas para el compromiso/g184.png"
       transform="matrix(1.5527981,0,0,-1.5711504,1007.6751,990.21509)"
       id="g3530">
      <path
         inkscape:connector-curvature="0"
         id="path3532"
         style="fill:none;stroke:#8dc8ab;stroke-width:1.15240765;stroke-miterlimit:4;stroke-dasharray:none;stroke-opacity:1"
         d="M 0,0 C 0,1.822 0.365,3.2 1.093,4.125 1.824,5.054 2.906,5.518 4.338,5.518 5.772,5.518 6.852,5.054 7.579,4.125 8.308,3.2 8.672,1.822 8.672,0 8.672,-1.816 8.308,-3.192 7.579,-4.115 6.852,-5.048 5.772,-5.508 4.338,-5.508 c -1.432,0 -2.514,0.46 -3.245,1.393 C 0.365,-3.192 0,-1.816 0,0 m 2.686,0 c 0,-0.906 0.143,-1.605 0.423,-2.089 0.288,-0.478 0.694,-0.721 1.229,-0.721 0.535,0 0.945,0.243 1.225,0.721 C 5.849,-1.605 5.988,-0.906 5.988,0 5.988,0.918 5.849,1.617 5.563,2.104 5.283,2.592 4.873,2.835 4.338,2.835 3.803,2.835 3.397,2.592 3.109,2.104 2.829,1.617 2.686,0.918 2.686,0" />
    </g>
    <flowRoot
       xml:space="preserve"
       id="flowRoot3556"
       style="font-style:normal;font-variant:normal;font-weight:200;font-stretch:normal;font-size:15px;line-height:100%;font-family:'Titillium Web';-inkscape-font-specification:'Titillium Web, Ultra-Light';text-align:start;letter-spacing:0px;word-spacing:-0.01px;writing-mode:lr-tb;text-anchor:start;fill:#000000;fill-opacity:1;stroke:none;stroke-width:1px;stroke-linecap:butt;stroke-linejoin:miter;stroke-opacity:1"
       transform="translate(473.03514,447.10152)"><flowRegion
         id="flowRegion3558"><rect
           id="rect3560"
           width="458.40024"
           height="315.16464"
           x="94.285713"
           y="249.50507"
           style="font-style:normal;font-variant:normal;font-weight:200;font-stretch:normal;font-size:15px;line-height:100%;font-family:'Titillium Web';-inkscape-font-specification:'Titillium Web, Ultra-Light';text-align:start;writing-mode:lr-tb;text-anchor:start" /></flowRegion><flowPara
         id="flowPara4429">Nadie mejor para invitarte a este viaje que sus protagonistas. Conoce a algunos de nuestros viajer@s que quieren contarte su historia e invitarte a sumarte a este proyecto.</flowPara><flowPara
         id="flowPara4431" /><flowPara
         id="flowPara4433">En 2014 fueron 183 los viajer@s que gracias a Fundación Novaterra iniciaron o continuaron este viaje hacia la dignidad. </flowPara><flowPara
         id="flowPara4435" /><flowPara
         id="flowPara4437">Profesionales y voluntarios de Novaterra lo han hecho posible. Y socios y donantes a los que te invitamos a sumarte. Nuestra financiación es 100% privada, de donantes como tú.</flowPara><flowPara
         id="flowPara4439" /></flowRoot>    <text
       xml:space="preserve"
       style="font-style:normal;font-variant:normal;font-weight:bold;font-stretch:normal;font-size:40.91875076px;line-height:100%;font-family:Zekton;-inkscape-font-specification:'Zekton, Bold';text-align:start;letter-spacing:0px;word-spacing:-0.01487966px;writing-mode:lr-tb;text-anchor:start;fill:#ffffff;fill-opacity:1;stroke:#786daa;stroke-width:1.79999995;stroke-linecap:butt;stroke-linejoin:miter;stroke-miterlimit:4;stroke-dasharray:none;stroke-opacity:1"
       x="27.15798"
       y="459.46844"
       id="text3407-9"
       sodipodi:linespacing="100%"><tspan
         sodipodi:role="line"
         id="tspan3625"
         x="27.15798"
         y="459.46844">Viaje a la dignidad</tspan></text>
    <flowRoot
       transform="translate(471.60657,609.95866)"
       style="font-style:normal;font-variant:normal;font-weight:bold;font-stretch:normal;font-size:22.5px;line-height:100%;font-family:'Titillium Web';-inkscape-font-specification:'Titillium Web Bold';text-align:center;letter-spacing:0px;word-spacing:-0.01px;writing-mode:lr-tb;text-anchor:middle;fill:#666666;fill-opacity:1;stroke:none;stroke-width:1px;stroke-linecap:butt;stroke-linejoin:miter;stroke-opacity:1"
       id="flowRoot4441"
       xml:space="preserve"><flowRegion
         id="flowRegion4443"><rect
           style="font-style:normal;font-variant:normal;font-weight:bold;font-stretch:normal;font-size:22.5px;line-height:100%;font-family:'Titillium Web';-inkscape-font-specification:'Titillium Web Bold';text-align:center;writing-mode:lr-tb;text-anchor:middle;fill:#666666"
           y="249.50507"
           x="94.285713"
           height="315.16461"
           width="452.68597"
           id="rect4445" /></flowRegion><flowPara
         id="flowPara4491">Te invitamos a ser parte de esta historia a ti y/o a tu comunidad, empresa u organización.</flowPara></flowRoot>    <flowRoot
       xml:space="preserve"
       id="flowRoot4469"
       style="font-style:normal;font-variant:normal;font-weight:bold;font-stretch:normal;font-size:30px;line-height:100%;font-family:'Titillium Web';-inkscape-font-specification:'Titillium Web Bold';text-align:center;letter-spacing:0px;word-spacing:-0.01px;writing-mode:lr-tb;text-anchor:middle;fill:#786daa;fill-opacity:1;stroke:none;stroke-width:1px;stroke-linecap:butt;stroke-linejoin:miter;stroke-opacity:1"
       transform="translate(467.78644,667.95866)"><flowRegion
         id="flowRegion4471"><rect
           id="rect4473"
           width="458.40024"
           height="315.16464"
           x="94.285713"
           y="249.50507"
           style="font-style:normal;font-variant:normal;font-weight:bold;font-stretch:normal;font-size:30px;line-height:100%;font-family:'Titillium Web';-inkscape-font-specification:'Titillium Web Bold';text-align:center;writing-mode:lr-tb;text-anchor:middle;fill:#786daa;fill-opacity:1" /></flowRegion><flowPara
         id="flowPara4485">¡Patrocina un viaje a la dignidad!</flowPara><flowPara
         id="flowPara4487" /><flowPara
         id="flowPara4489" /></flowRoot>    <rect
       style="color:#000000;display:inline;overflow:visible;visibility:visible;opacity:0.446;fill:#ffffff;fill-opacity:0;fill-rule:nonzero;stroke:none;stroke-width:1;stroke-linecap:round;stroke-linejoin:round;stroke-miterlimit:4;stroke-dasharray:3, 3;stroke-dashoffset:0;stroke-opacity:1;marker:none;enable-background:accumulate"
       id="rect4958"
       width="485.71429"
       height="565.71429"
       x="25.714285"
       y="459.50507" />
    <image
       sodipodi:absref="/home/creawww/KGESTION/070_novaterra/diseños/folleto viaje a al dignidad/imagenes/grupo.JPG"
       xlink:href="imagenes/grupo.JPG"
       y="483.7067"
       x="1213.698"
       id="image4327"
       preserveAspectRatio="none"
       height="379.91589"
       width="508.64774"
       clip-path="url(#clipPath4332)"
       transform="matrix(0.99407651,0,0,0.99407651,-652.39695,-23.927243)" />
  </g>
</svg>
