<?xml version="1.0" encoding="UTF-8" standalone="no"?>
<!-- Created with Inkscape (http://www.inkscape.org/) -->

<svg
   xmlns:dc="http://purl.org/dc/elements/1.1/"
   xmlns:cc="http://creativecommons.org/ns#"
   xmlns:rdf="http://www.w3.org/1999/02/22-rdf-syntax-ns#"
   xmlns:svg="http://www.w3.org/2000/svg"
   xmlns="http://www.w3.org/2000/svg"
   xmlns:xlink="http://www.w3.org/1999/xlink"
   xmlns:sodipodi="http://sodipodi.sourceforge.net/DTD/sodipodi-0.dtd"
   xmlns:inkscape="http://www.inkscape.org/namespaces/inkscape"
   width="297mm"
   height="210mm"
   viewBox="0 0 1052.3622 744.09448"
   id="svg3399"
   version="1.1"
   inkscape:version="0.91 r13725"
   sodipodi:docname="pagina3.svg">
  <defs
     id="defs3401">
    <linearGradient
       inkscape:collect="always"
       id="linearGradient4712">
      <stop
         style="stop-color:#786daa;stop-opacity:1"
         offset="0"
         id="stop4714" />
      <stop
         style="stop-color:#8dc8ab;stop-opacity:1"
         offset="1"
         id="stop4716" />
    </linearGradient>
    <clipPath
       clipPathUnits="userSpaceOnUse"
       id="clipPath4225">
      <rect
         style="color:#000000;display:inline;overflow:visible;visibility:visible;opacity:0.57900002;fill:#ff0000;fill-opacity:1;fill-rule:nonzero;stroke:none;stroke-width:1;stroke-linecap:round;stroke-linejoin:round;stroke-miterlimit:4;stroke-dasharray:3, 3;stroke-dashoffset:0;stroke-opacity:1;marker:none;enable-background:accumulate"
         id="rect4227"
         width="175.71429"
         height="469.28571"
         x="115"
         y="450.93365" />
    </clipPath>
    <clipPath
       clipPathUnits="userSpaceOnUse"
       id="clipPath4469">
      <rect
         style="color:#000000;display:inline;overflow:visible;visibility:visible;opacity:0.57900002;fill:#ffffff;fill-opacity:1;fill-rule:nonzero;stroke:none;stroke-width:1;stroke-linecap:round;stroke-linejoin:round;stroke-miterlimit:4;stroke-dasharray:3, 3;stroke-dashoffset:0;stroke-opacity:1;marker:none;enable-background:accumulate"
         id="rect4471"
         width="367.14282"
         height="244.28571"
         x="591.42853"
         y="430.93362" />
    </clipPath>
    <linearGradient
       inkscape:collect="always"
       xlink:href="#linearGradient4712"
       id="linearGradient3574"
       gradientUnits="userSpaceOnUse"
       gradientTransform="matrix(0.71523434,0,0,0.82059578,515.28628,263.30073)"
       x1="375.78049"
       y1="186.64793"
       x2="370.09128"
       y2="929.50507" />
    <linearGradient
       inkscape:collect="always"
       xlink:href="#linearGradient4712"
       id="linearGradient4718-9"
       x1="375.78049"
       y1="186.64793"
       x2="370.09128"
       y2="929.50507"
       gradientUnits="userSpaceOnUse"
       gradientTransform="matrix(0.71523697,0,0,0.81849202,-10.895801,265.24407)" />
    <clipPath
       clipPathUnits="userSpaceOnUse"
       id="clipPath5623">
      <rect
         style="color:#000000;display:inline;overflow:visible;visibility:visible;opacity:0.45500004;fill:#ffffff;fill-opacity:1;fill-rule:nonzero;stroke:none;stroke-width:1;stroke-linecap:round;stroke-linejoin:round;stroke-miterlimit:4;stroke-dasharray:3, 3;stroke-dashoffset:0;stroke-opacity:1;marker:none;enable-background:accumulate"
         id="rect5625"
         width="990.93359"
         height="141.2373"
         x="37.142853"
         y="359.69632"
         ry="0"
         transform="matrix(0.85677887,-0.51568398,0.51568398,0.85677887,0,0)" />
    </clipPath>
    <clipPath
       clipPathUnits="userSpaceOnUse"
       id="clipPath6120">
      <rect
         style="color:#000000;display:inline;overflow:visible;visibility:visible;opacity:0.58800001;fill:#786daa;fill-opacity:1;fill-rule:nonzero;stroke:none;stroke-width:1;stroke-linecap:round;stroke-linejoin:round;stroke-miterlimit:4;stroke-dasharray:3, 3;stroke-dashoffset:0;stroke-opacity:1;marker:none;enable-background:accumulate"
         id="rect6122"
         width="380.92361"
         height="222.80437"
         x="585.19482"
         y="432.3558" />
    </clipPath>
  </defs>
  <sodipodi:namedview
     id="base"
     pagecolor="#ffffff"
     bordercolor="#666666"
     borderopacity="1.0"
     inkscape:pageopacity="0.0"
     inkscape:pageshadow="2"
     inkscape:zoom="0.54414063"
     inkscape:cx="571.64864"
     inkscape:cy="579.0641"
     inkscape:document-units="px"
     inkscape:current-layer="layer1"
     showgrid="false"
     inkscape:window-width="1920"
     inkscape:window-height="1014"
     inkscape:window-x="0"
     inkscape:window-y="27"
     inkscape:window-maximized="1"
     showguides="false"
     inkscape:snap-page="true"
     inkscape:snap-bbox="true"
     inkscape:bbox-nodes="true" />
  <metadata
     id="metadata3404">
    <rdf:RDF>
      <cc:Work
         rdf:about="">
        <dc:format>image/svg+xml</dc:format>
        <dc:type
           rdf:resource="http://purl.org/dc/dcmitype/StillImage" />
        <dc:title />
      </cc:Work>
    </rdf:RDF>
  </metadata>
  <g
     inkscape:label="Capa 1"
     inkscape:groupmode="layer"
     id="layer1"
     transform="translate(0,-308.26772)">
    <image
       sodipodi:absref="/home/creawww/KGESTION/070_novaterra/diseños/folleto viaje a al dignidad/imagenes/cabecera.png"
       xlink:href="imagenes/cabecera.png"
       y="333.22546"
       x="21.129967"
       id="image5051"
       preserveAspectRatio="none"
       height="141.21825"
       width="1008.0079" />
    <flowRoot
       xml:space="preserve"
       id="flowRoot4255"
       style="fill:black;stroke:none;stroke-opacity:1;stroke-width:1px;stroke-linejoin:miter;stroke-linecap:butt;fill-opacity:1;font-family:Nunito;font-style:normal;font-weight:bold;font-size:12px;line-height:100%;letter-spacing:0px;word-spacing:-0.01px;-inkscape-font-specification:Sans Bold;font-stretch:normal;font-variant:normal"><flowRegion
         id="flowRegion4257"><rect
           id="rect4259"
           width="117.14285"
           height="324.28571"
           x="600"
           y="204.09448" /></flowRegion><flowPara
         id="flowPara4261" /></flowRoot>    <path
       sodipodi:nodetypes="csccsccc"
       inkscape:connector-curvature="0"
       id="path4963"
       d="m 548.83938,426.52947 438.49116,-0.18482 c 22.90016,-0.01 41.46226,21.61294 41.46226,46.03247 0.9048,183.59032 0.3328,548.63938 0.3328,548.63938 l -439.03622,-0.3796 c -22.90017,-0.02 -41.33606,-19.6589 -41.33606,-44.07851 0.15229,-183.3428 -0.24877,-366.68634 0.0861,-550.02892 z"
       style="color:#000000;display:inline;overflow:visible;visibility:visible;opacity:0.6;fill:#ffffff;fill-opacity:1;fill-rule:nonzero;stroke:none;stroke-width:1;stroke-linecap:round;stroke-linejoin:round;stroke-miterlimit:4;stroke-dasharray:3, 3;stroke-dashoffset:0;stroke-opacity:1;marker:none;enable-background:accumulate" />
    <path
       style="color:#000000;display:inline;overflow:visible;visibility:visible;opacity:0.6;fill:#ffffff;fill-opacity:1;fill-rule:nonzero;stroke:none;stroke-width:1;stroke-linecap:round;stroke-linejoin:round;stroke-miterlimit:4;stroke-dasharray:3, 3;stroke-dashoffset:0;stroke-opacity:1;marker:none;enable-background:accumulate"
       d="M 21.560099,427.79209 460.0513,427.60734 c 22.9001,-0.01 42.85125,19.07464 42.85125,43.48451 0.90479,183.51769 -1.4527,367.06162 0.459,550.57265 l -440.551448,0 c -22.900203,0 -41.336103,-19.6512 -41.336103,-44.06108 0.1523,-183.27027 -0.2488,-366.54128 0.086,-549.81133 z"
       id="rect4960"
       inkscape:connector-curvature="0"
       sodipodi:nodetypes="csccscc" />
    <path
       style="color:#000000;display:inline;overflow:visible;visibility:visible;fill:none;stroke:url(#linearGradient4718-9);stroke-width:1.37722433;stroke-linecap:butt;stroke-linejoin:miter;stroke-miterlimit:4;stroke-dasharray:none;stroke-dashoffset:0;stroke-opacity:1;marker:none;enable-background:accumulate"
       d="m 502.63916,1020.9654 -440.757058,0 c -22.355103,0 -40.352103,-20.595 -40.352103,-46.17733 -0.2387,-181.55938 -0.041,-546.90955 -0.041,-546.90955 l 15.9067,-0.11654 m -4.2376,0 428.964401,0 c 22.355,0 40.35205,20.59518 40.35205,46.17753 l 0,547.06419"
       id="rect3812-4"
       inkscape:connector-curvature="0"
       sodipodi:nodetypes="csccccssc" />
    <text
       sodipodi:linespacing="100%"
       id="text3478"
       y="461.20901"
       x="546.00763"
       style="font-style:normal;font-variant:normal;font-weight:bold;font-stretch:normal;font-size:40.91875076px;line-height:100%;font-family:Zekton;-inkscape-font-specification:'Zekton, Bold';text-align:start;letter-spacing:0px;word-spacing:-0.01487966px;writing-mode:lr-tb;text-anchor:start;fill:#ffffff;fill-opacity:1;stroke:#786daa;stroke-width:1.79999995;stroke-linecap:butt;stroke-linejoin:miter;stroke-miterlimit:4;stroke-dasharray:none;stroke-opacity:1"
       xml:space="preserve"><tspan
         sodipodi:role="line"
         id="tspan4427"
         x="546.00763"
         y="461.20901">JAMAL</tspan></text>
    <path
       sodipodi:nodetypes="cscccssc"
       inkscape:connector-curvature="0"
       id="path3482"
       d="m 901.677,1020.9645 -313.61307,0 c -22.35501,0 -40.35195,-20.6479 -40.35195,-46.29598 -0.23968,-182.81018 0.34276,-365.62224 -0.0458,-548.43215 m -0.31105,0 440.94781,0 c 22.35496,0 40.35186,20.64812 40.35186,46.29621 l 0,518.39324"
       style="color:#000000;display:inline;overflow:visible;visibility:visible;fill:none;stroke:url(#linearGradient3574);stroke-width:1.37899077;stroke-linecap:butt;stroke-linejoin:miter;stroke-miterlimit:4;stroke-dasharray:none;stroke-dashoffset:0;stroke-opacity:1;marker:none;enable-background:accumulate" />
    <path
       sodipodi:nodetypes="ccccccccccccc"
       inkscape:export-ydpi="90"
       inkscape:export-xdpi="90"
       inkscape:export-filename="/home/creawww/KGESTION/070/diseños/jornadas para el compromiso/g184.png"
       d="m 851.31681,965.08674 41.77995,0.1562 -0.16894,41.45546 -8.09505,-14.68988 -7.44704,0 0,24.55058 7.38967,0.066 -0.13125,-14.6305 8.08865,14.5646 2.29062,4.1854 -43.96144,0.052 0.25627,-55.70966 z"
       style="fill:none;stroke:#8dc8ab;stroke-width:1.79999995;stroke-miterlimit:4;stroke-dasharray:none;stroke-opacity:1"
       id="path3484"
       inkscape:connector-curvature="0" />
    <path
       sodipodi:nodetypes="cccccccccc"
       inkscape:export-ydpi="90"
       inkscape:export-xdpi="90"
       inkscape:export-filename="/home/creawww/KGESTION/070/diseños/jornadas para el compromiso/g184.png"
       d="m 893.72,992.00812 6.46107,0 0.13125,24.68098 -6.43949,0.053 2.09464,3.9609 9.79986,-0.022 -0.15625,-55.42216 -11.68013,-0.015 -0.20968,26.75988 z"
       style="fill:none;stroke:#8dc8ab;stroke-width:1.79999995;stroke-miterlimit:4;stroke-dasharray:none;stroke-opacity:1"
       id="path3486"
       inkscape:connector-curvature="0" />
    <g
       style="fill:none;stroke:#8dc8ab;stroke-width:1.15240765;stroke-miterlimit:4;stroke-dasharray:none;stroke-opacity:1"
       inkscape:export-ydpi="90"
       inkscape:export-xdpi="90"
       inkscape:export-filename="/home/creawww/KGESTION/070/diseños/jornadas para el compromiso/g184.png"
       transform="matrix(1.5527981,0,0,-1.5711504,995.05814,995.33912)"
       id="g3488">
      <path
         inkscape:connector-curvature="0"
         id="path3490"
         style="fill:none;stroke:#8dc8ab;stroke-width:1.15240765;stroke-miterlimit:4;stroke-dasharray:none;stroke-opacity:1"
         d="m 0,0 0,0.323 -2.608,0 0,-0.277 c 0,-1.037 -0.071,-1.956 -1.194,-1.956 -1.169,0 -1.267,1.065 -1.267,3.955 0,2.199 0.057,3.587 1.28,3.587 1.037,0 1.123,-0.821 1.123,-1.652 l 0,-0.276 2.58,0 0,0.366 c 0,2.697 -1.472,3.311 -3.734,3.311 -3.644,0 -3.875,-2.218 -3.875,-5.661 0,-3.948 0.672,-5.378 3.906,-5.378 C -1.15,-3.658 0,-2.697 0,0" />
    </g>
    <path
       sodipodi:nodetypes="ccccc"
       inkscape:export-ydpi="90"
       inkscape:export-xdpi="90"
       inkscape:export-filename="/home/creawww/KGESTION/070/diseños/jornadas para el compromiso/g184.png"
       inkscape:connector-curvature="0"
       id="path3492"
       style="fill:none;stroke:#8dc8ab;stroke-width:1.79999995;stroke-miterlimit:4;stroke-dasharray:none;stroke-opacity:1"
       d="m 996.66994,984.13242 4.07776,0 0,16.56458 -4.07776,0 z" />
    <g
       style="fill:none;stroke:#8dc8ab;stroke-width:1.15240765;stroke-miterlimit:4;stroke-dasharray:none;stroke-opacity:1"
       inkscape:export-ydpi="90"
       inkscape:export-xdpi="90"
       inkscape:export-filename="/home/creawww/KGESTION/070/diseños/jornadas para el compromiso/g184.png"
       transform="matrix(1.5527981,0,0,-1.5711504,1012.2028,979.59382)"
       id="g3494">
      <path
         inkscape:connector-curvature="0"
         id="path3496"
         style="fill:none;stroke:#8dc8ab;stroke-width:1.15240765;stroke-miterlimit:4;stroke-dasharray:none;stroke-opacity:1"
         d="m 0,0 -2.292,0 -1.224,-2.102 1.359,0 L 0,0 Z" />
    </g>
    <g
       style="fill:none;stroke:#8dc8ab;stroke-width:1.15240765;stroke-miterlimit:4;stroke-dasharray:none;stroke-opacity:1"
       inkscape:export-ydpi="90"
       inkscape:export-xdpi="90"
       inkscape:export-filename="/home/creawww/KGESTION/070/diseños/jornadas para el compromiso/g184.png"
       transform="matrix(1.5527981,0,0,-1.5711504,954.06083,1000.697)"
       id="g3498">
      <path
         inkscape:connector-curvature="0"
         id="path3500"
         style="fill:none;stroke:#8dc8ab;stroke-width:1.15240765;stroke-miterlimit:4;stroke-dasharray:none;stroke-opacity:1"
         d="m 0,0 0,10.543 -2.13,0 0,-8.606 -2.04,8.606 -3.804,0 0,-10.543 2.141,0 0,8.587 L -3.791,0 0,0 Z" />
    </g>
    <g
       style="fill:none;stroke:#8dc8ab;stroke-width:1.15240765;stroke-miterlimit:4;stroke-dasharray:none;stroke-opacity:1"
       inkscape:export-ydpi="90"
       inkscape:export-xdpi="90"
       inkscape:export-filename="/home/creawww/KGESTION/070/diseños/jornadas para el compromiso/g184.png"
       transform="matrix(1.5527981,0,0,-1.5711504,925.78143,986.85892)"
       id="g3502">
      <path
         inkscape:connector-curvature="0"
         id="path3504"
         style="fill:none;stroke:#8dc8ab;stroke-width:1.15240765;stroke-miterlimit:4;stroke-dasharray:none;stroke-opacity:1"
         d="m 0,0 0,1.735 -5.933,0 0,-10.543 2.623,0 0,4.55 3.196,0 0,1.66 -3.196,0 L -3.31,0 0,0 Z" />
    </g>
    <g
       style="fill:none;stroke:#8dc8ab;stroke-width:1.15240765;stroke-miterlimit:4;stroke-dasharray:none;stroke-opacity:1"
       inkscape:export-ydpi="90"
       inkscape:export-xdpi="90"
       inkscape:export-filename="/home/creawww/KGESTION/070/diseños/jornadas para el compromiso/g184.png"
       transform="matrix(1.5527981,0,0,-1.5711504,1017.8648,1020.3193)"
       id="g3506">
      <path
         inkscape:connector-curvature="0"
         id="path3508"
         style="fill:none;stroke:#8dc8ab;stroke-width:1.15240765;stroke-miterlimit:4;stroke-dasharray:none;stroke-opacity:1"
         d="m 0,0 2.797,10.478 3.167,0 L 8.57,0 5.865,0 5.647,1.027 2.908,1.027 2.68,0 0,0 Z m 3.5,3.611 1.599,0 L 4.326,7.298 3.5,3.611 Z m -8.848,2.34 1.455,0 c 0.382,0 0.649,0.07 0.807,0.216 0.153,0.146 0.232,0.394 0.232,0.735 0,0.344 -0.071,0.577 -0.22,0.714 -0.147,0.131 -0.442,0.202 -0.88,0.202 l -1.394,0 0,-1.867 z m 2.374,4.527 c 0.56,0 1.012,-0.048 1.349,-0.132 0.335,-0.088 0.601,-0.226 0.788,-0.408 0.238,-0.235 0.425,-0.543 0.553,-0.934 0.126,-0.39 0.187,-0.839 0.187,-1.349 0,-0.62 -0.091,-1.164 -0.281,-1.634 -0.19,-0.468 -0.449,-0.805 -0.78,-1.017 0.284,-0.193 0.484,-0.432 0.596,-0.718 0.115,-0.282 0.184,-0.792 0.204,-1.515 0.004,-0.079 0.004,-0.187 0.008,-0.327 0.043,-1.37 0.155,-2.13 0.342,-2.285 l 0,-0.159 -2.776,0 c -0.083,0.22 -0.134,0.646 -0.141,1.29 -0.008,0.37 -0.013,0.657 -0.031,0.863 -0.023,0.379 -0.105,0.648 -0.235,0.805 -0.132,0.156 -0.353,0.235 -0.666,0.235 l -1.491,0 0,-3.193 -2.532,0 0,10.478 4.906,0 z m -11.221,-4.527 1.457,0 c 0.384,0 0.647,0.07 0.804,0.216 0.155,0.146 0.234,0.394 0.234,0.735 0,0.344 -0.072,0.577 -0.22,0.714 -0.148,0.131 -0.441,0.202 -0.879,0.202 l -1.396,0 0,-1.867 z m 2.377,4.527 c 0.56,0 1.01,-0.048 1.347,-0.132 0.333,-0.088 0.595,-0.226 0.789,-0.408 0.24,-0.235 0.421,-0.543 0.553,-0.934 0.123,-0.39 0.188,-0.839 0.188,-1.349 0,-0.62 -0.095,-1.164 -0.283,-1.634 -0.192,-0.468 -0.452,-0.805 -0.782,-1.017 0.286,-0.193 0.489,-0.432 0.602,-0.718 0.114,-0.282 0.18,-0.792 0.2,-1.515 0.002,-0.079 0.004,-0.187 0.009,-0.327 0.042,-1.37 0.154,-2.13 0.34,-2.285 l 0,-0.159 -2.774,0 c -0.084,0.22 -0.133,0.646 -0.142,1.29 -0.006,0.37 -0.015,0.657 -0.033,0.863 -0.022,0.379 -0.105,0.648 -0.235,0.805 -0.131,0.156 -0.351,0.235 -0.664,0.235 l -1.492,0 0,-3.193 -2.533,0 0,10.478 4.91,0 z M -24.57,0 l 0,10.478 6.832,0 0,-2.575 -4.332,0 0,-1.243 3.507,0 0,-2.59 -3.507,0 0,-1.374 4.545,0 0,-2.696 -7.045,0 z m -5.561,0 0,7.818 -2.331,0 0,2.66 7.171,0 0,-2.66 -2.342,0 0,-7.818 -2.498,0 z m -10.301,0 2.793,10.478 3.165,0 2.609,-10.478 -2.705,0 -0.213,1.027 -2.744,0 L -37.756,0 -40.432,0 Z m 3.496,3.611 1.601,0 -0.78,3.687 -0.821,-3.687 z M -45.032,0 l -2.849,10.478 2.819,0 1.367,-7.013 1.439,7.013 2.79,0 L -42.428,0 -45.032,0 Z m -11.301,5.232 c 0,1.821 0.362,3.2 1.094,4.124 0.728,0.928 1.811,1.392 3.24,1.392 1.437,0 2.514,-0.464 3.245,-1.392 0.728,-0.924 1.096,-2.303 1.096,-4.124 0,-1.819 -0.368,-3.193 -1.096,-4.117 -0.731,-0.927 -1.808,-1.391 -3.245,-1.391 -1.429,0 -2.512,0.464 -3.24,1.391 -0.732,0.924 -1.094,2.298 -1.094,4.117 m 2.687,0 c 0,-0.908 0.137,-1.606 0.424,-2.089 0.282,-0.48 0.688,-0.723 1.223,-0.723 0.536,0 0.943,0.243 1.229,0.723 0.283,0.483 0.424,1.181 0.424,2.089 0,0.916 -0.141,1.616 -0.424,2.102 -0.286,0.488 -0.693,0.733 -1.229,0.733 -0.535,0 -0.941,-0.245 -1.223,-0.733 -0.287,-0.486 -0.424,-1.186 -0.424,-2.102 M -65.232,0 l 0,10.478 2.954,0 2.487,-6.038 0,6.038 2.419,0 0,-10.478 -2.8,0 -2.706,6.135 0,-6.135 -2.354,0 z" />
    </g>
    <g
       style="fill:none;stroke:#8dc8ab;stroke-width:1.15240765;stroke-miterlimit:4;stroke-dasharray:none;stroke-opacity:1"
       inkscape:export-ydpi="90"
       inkscape:export-xdpi="90"
       inkscape:export-filename="/home/creawww/KGESTION/070/diseños/jornadas para el compromiso/g184.png"
       transform="matrix(1.5527981,0,0,-1.5711504,939.29987,995.15492)"
       id="g3510">
      <path
         inkscape:connector-curvature="0"
         id="path3512"
         style="fill:none;stroke:#8dc8ab;stroke-width:1.15240765;stroke-miterlimit:4;stroke-dasharray:none;stroke-opacity:1"
         d="m 0,0 0,7.016 -2.563,0 0,-6.984 c 0,-1.153 -0.166,-2.059 -1.345,-2.059 -1.139,0 -1.328,0.891 -1.328,2.088 l 0,6.955 -2.612,0 0,-6.984 c 0,-2.626 1.17,-3.807 3.924,-3.807 C -1.3,-3.775 0,-2.787 0,0" />
    </g>
    <g
       style="fill:none;stroke:#8dc8ab;stroke-width:1.15240765;stroke-miterlimit:4;stroke-dasharray:none;stroke-opacity:1"
       inkscape:export-ydpi="90"
       inkscape:export-xdpi="90"
       inkscape:export-filename="/home/creawww/KGESTION/070/diseños/jornadas para el compromiso/g184.png"
       transform="matrix(1.5527981,0,0,-1.5711504,939.29987,995.15492)"
       id="g3514">
      <path
         inkscape:connector-curvature="0"
         id="path3516"
         style="fill:none;stroke:#8dc8ab;stroke-width:1.15240765;stroke-miterlimit:4;stroke-dasharray:none;stroke-opacity:1"
         d="m 0,0 0,7.016 -2.563,0 0,-6.984 c 0,-1.153 -0.166,-2.059 -1.345,-2.059 -1.139,0 -1.328,0.891 -1.328,2.088 l 0,6.955 -2.612,0 0,-6.984 c 0,-2.626 1.17,-3.807 3.924,-3.807 C -1.3,-3.775 0,-2.787 0,0" />
    </g>
    <g
       style="fill:none;stroke:#8dc8ab;stroke-width:1.15240765;stroke-miterlimit:4;stroke-dasharray:none;stroke-opacity:1"
       inkscape:export-ydpi="90"
       inkscape:export-xdpi="90"
       inkscape:export-filename="/home/creawww/KGESTION/070/diseños/jornadas para el compromiso/g184.png"
       transform="matrix(1.5527981,0,0,-1.5711504,964.40734,992.31172)"
       id="g3518">
      <path
         inkscape:connector-curvature="0"
         id="path3520"
         style="fill:none;stroke:#8dc8ab;stroke-width:1.15240765;stroke-miterlimit:4;stroke-dasharray:none;stroke-opacity:1"
         d="m 0,0 c 0,-2.157 -0.06,-3.589 -1.733,-3.589 l -0.746,0 0,7.044 0.73,0 C -0.175,3.455 0,2.463 0,0 m 2.637,0.221 c 0,3.586 -0.408,4.985 -4.283,4.985 l -3.441,0 0,-10.543 3.425,0 c 4.083,0 4.299,1.692 4.299,5.558" />
    </g>
    <g
       style="fill:none;stroke:#8dc8ab;stroke-width:1.15240765;stroke-miterlimit:4;stroke-dasharray:none;stroke-opacity:1"
       inkscape:export-ydpi="90"
       inkscape:export-xdpi="90"
       inkscape:export-filename="/home/creawww/KGESTION/070/diseños/jornadas para el compromiso/g184.png"
       transform="matrix(1.5527981,0,0,-1.5711504,1016.4561,1000.6831)"
       id="g3522">
      <path
         inkscape:connector-curvature="0"
         id="path3524"
         style="fill:none;stroke:#8dc8ab;stroke-width:1.15240765;stroke-miterlimit:4;stroke-dasharray:none;stroke-opacity:1"
         d="m 0,0 0,10.478 2.955,0 2.486,-6.037 0,6.037 2.419,0 L 7.86,0 5.062,0 2.354,6.135 2.354,0 0,0 Z" />
    </g>
    <g
       style="fill:none;stroke:#8dc8ab;stroke-width:1.15240765;stroke-miterlimit:4;stroke-dasharray:none;stroke-opacity:1"
       inkscape:export-ydpi="90"
       inkscape:export-xdpi="90"
       inkscape:export-filename="/home/creawww/KGESTION/070/diseños/jornadas para el compromiso/g184.png"
       transform="matrix(1.5527981,0,0,-1.5711504,968.86394,1000.5987)"
       id="g3526">
      <path
         inkscape:connector-curvature="0"
         id="path3528"
         style="fill:none;stroke:#8dc8ab;stroke-width:1.15240765;stroke-miterlimit:4;stroke-dasharray:none;stroke-opacity:1"
         d="m 0,0 2.816,10.546 3.188,0 L 8.627,0 5.906,0 5.687,1.035 2.931,1.035 2.695,0 0,0 Z m 3.522,3.632 1.609,0 -0.779,3.712 -0.83,-3.712 z" />
    </g>
    <g
       style="fill:none;stroke:#8dc8ab;stroke-width:1.15240765;stroke-miterlimit:4;stroke-dasharray:none;stroke-opacity:1"
       inkscape:export-ydpi="90"
       inkscape:export-xdpi="90"
       inkscape:export-filename="/home/creawww/KGESTION/070/diseños/jornadas para el compromiso/g184.png"
       transform="matrix(1.5527981,0,0,-1.5711504,1002.0062,992.41922)"
       id="g3530">
      <path
         inkscape:connector-curvature="0"
         id="path3532"
         style="fill:none;stroke:#8dc8ab;stroke-width:1.15240765;stroke-miterlimit:4;stroke-dasharray:none;stroke-opacity:1"
         d="M 0,0 C 0,1.822 0.365,3.2 1.093,4.125 1.824,5.054 2.906,5.518 4.338,5.518 5.772,5.518 6.852,5.054 7.579,4.125 8.308,3.2 8.672,1.822 8.672,0 8.672,-1.816 8.308,-3.192 7.579,-4.115 6.852,-5.048 5.772,-5.508 4.338,-5.508 c -1.432,0 -2.514,0.46 -3.245,1.393 C 0.365,-3.192 0,-1.816 0,0 m 2.686,0 c 0,-0.906 0.143,-1.605 0.423,-2.089 0.288,-0.478 0.694,-0.721 1.229,-0.721 0.535,0 0.945,0.243 1.225,0.721 C 5.849,-1.605 5.988,-0.906 5.988,0 5.988,0.918 5.849,1.617 5.563,2.104 5.283,2.592 4.873,2.835 4.338,2.835 3.803,2.835 3.397,2.592 3.109,2.104 2.829,1.617 2.686,0.918 2.686,0" />
    </g>
    <text
       xml:space="preserve"
       style="font-style:normal;font-variant:normal;font-weight:bold;font-stretch:normal;font-size:40.91875076px;line-height:100%;font-family:Zekton;-inkscape-font-specification:'Zekton, Bold';text-align:start;letter-spacing:0px;word-spacing:-0.01487966px;writing-mode:lr-tb;text-anchor:start;fill:#ffffff;fill-opacity:1;stroke:#786daa;stroke-width:1.79999995;stroke-linecap:butt;stroke-linejoin:miter;stroke-miterlimit:4;stroke-dasharray:none;stroke-opacity:1"
       x="21.489094"
       y="461.67261"
       id="text3407-9"
       sodipodi:linespacing="100%"><tspan
         sodipodi:role="line"
         id="tspan3625"
         x="21.489094"
         y="461.67261">AMPARO</tspan></text>
    <flowRoot
       transform="translate(465.9377,588.16281)"
       style="font-style:normal;font-variant:normal;font-weight:bold;font-stretch:normal;font-size:20px;line-height:100%;font-family:'Titillium Web';-inkscape-font-specification:'Titillium Web, Bold';text-align:center;letter-spacing:0px;word-spacing:-0.01px;writing-mode:lr-tb;text-anchor:middle;fill:#786daa;fill-opacity:1;stroke:none;stroke-width:1px;stroke-linecap:butt;stroke-linejoin:miter;stroke-opacity:1"
       id="flowRoot4441"
       xml:space="preserve"><flowRegion
         id="flowRegion4443"><rect
           style="font-style:normal;font-variant:normal;font-weight:bold;font-stretch:normal;font-size:20px;line-height:100%;font-family:'Titillium Web';-inkscape-font-specification:'Titillium Web, Bold';text-align:center;writing-mode:lr-tb;text-anchor:middle;fill:#786daa;fill-opacity:1"
           y="249.50507"
           x="94.285713"
           height="315.16461"
           width="452.68597"
           id="rect4445" /></flowRegion><flowPara
         id="flowPara3425">«Me gusta Novaterra y me gusta cocinar».</flowPara></flowRoot>    <rect
       style="color:#000000;display:inline;overflow:visible;visibility:visible;opacity:0.44600004;fill:#ffffff;fill-opacity:0;fill-rule:nonzero;stroke:none;stroke-width:1;stroke-linecap:round;stroke-linejoin:round;stroke-miterlimit:4;stroke-dasharray:3, 3;stroke-dashoffset:0;stroke-opacity:1;marker:none;enable-background:accumulate"
       id="rect4958"
       width="485.71429"
       height="565.71429"
       x="20.045368"
       y="461.70923" />
    <image
       sodipodi:absref="/home/creawww/KGESTION/070_novaterra/diseños/folleto viaje a al dignidad/imagenes/amparo.jpg"
       xlink:href="imagenes/amparo.jpg"
       transform="matrix(1.0229953,0,0,1.0432007,-96.141701,11.946926)"
       clip-path="url(#clipPath4225)"
       y="467.21997"
       x="50.025242"
       id="image4782"
       preserveAspectRatio="none"
       height="444.27274"
       width="281.04544" />
    <flowRoot
       xml:space="preserve"
       id="flowRoot4361"
       style="font-style:normal;font-variant:normal;font-weight:200;font-stretch:normal;font-size:15px;line-height:100%;font-family:'Titillium Web';-inkscape-font-specification:'Titillium Web, Ultra-Light';text-align:start;letter-spacing:0px;word-spacing:-0.01px;writing-mode:lr-tb;text-anchor:start;fill:#000000;fill-opacity:1;stroke:none;stroke-width:1px;stroke-linecap:butt;stroke-linejoin:miter;stroke-opacity:1"
       transform="translate(116.46952,248.84618)"><flowRegion
         id="flowRegion4363"><rect
           id="rect4365"
           width="276.604"
           height="547.26178"
           x="94.285713"
           y="249.50507"
           style="font-style:normal;font-variant:normal;font-weight:200;font-stretch:normal;font-size:15px;line-height:100%;font-family:'Titillium Web';-inkscape-font-specification:'Titillium Web, Ultra-Light';text-align:start;writing-mode:lr-tb;text-anchor:start" /></flowRegion><flowPara
         id="flowPara6096">«Cuando llegué a Novaterra estaba hundida emocional y económicamente. Había perdido el trabajo, tras 21 años de ejercicio en la misma empresa, y de una forma no muy cordial. Mi marido también atravesaba una mala situación laboral. Teníamos un nene de 4 añitos. <flowSpan
   style="font-style:normal;font-variant:normal;font-weight:bold;font-stretch:normal;font-family:'Titillium Web';-inkscape-font-specification:'Titillium Web Bold'"
   id="flowSpan3417">Y lo peor de todo fue la enfermedad y pérdida de la mujer más importante de mi vida, MI MADRE</flowSpan>».</flowPara><flowPara
         id="flowPara6098" /><flowPara
         id="flowPara6100">En Novaterra pudimos ofrecer a Amparo las <flowSpan
   style="font-style:normal;font-variant:normal;font-weight:bold;font-stretch:normal;font-family:'Titillium Web';-inkscape-font-specification:'Titillium Web Bold'"
   id="flowSpan3419">herramientas necesarias para que cambiara el rumbo de su vida: Formación, y experiencia</flowSpan> en una de nuestras empresas, Novaterra Catering. </flowPara><flowPara
         id="flowPara6102" /><flowPara
         id="flowPara6104">Amparo ha descubierto la pasión por la restauración y hoy está formándose en un curso superior del Centro de Turismo Valenciano.</flowPara><flowPara
         id="flowPara6106" /><flowPara
         id="flowPara6108">Además<flowSpan
   style="font-style:normal;font-variant:normal;font-weight:bold;font-stretch:normal;font-family:'Titillium Web';-inkscape-font-specification:'Titillium Web Bold'"
   id="flowSpan3423"> se ha convertido en formadora de compañeros/as</flowSpan> que están en la situación inicial en la que ella se encontró hace un tiempo. Nadie mejor que ella para acompañarles en el proceso. </flowPara><flowPara
         id="flowPara6110" /><flowPara
         id="flowPara6112">“Hoy me encuentro con autoestima, confianza, vista de futuro y con ganas de seguir formándome, trabajar y, en la medida de lo posible, ayudar a los demás”.</flowPara><flowPara
         id="flowPara6114" /><flowPara
         id="flowPara6116" /></flowRoot>    <flowRoot
       xml:space="preserve"
       id="flowRoot4366"
       style="font-style:normal;font-variant:normal;font-weight:200;font-stretch:normal;font-size:15px;line-height:100%;font-family:'Titillium Web';-inkscape-font-specification:'Titillium Web, Ultra-Light';text-align:start;letter-spacing:0px;word-spacing:-0.01px;writing-mode:lr-tb;text-anchor:start;fill:#000000;fill-opacity:1;stroke:none;stroke-width:1px;stroke-linecap:butt;stroke-linejoin:miter;stroke-opacity:1"
       transform="translate(480.24166,510.72724)"><flowRegion
         id="flowRegion4368"><rect
           id="rect4370"
           width="458.40024"
           height="315.16464"
           x="94.285713"
           y="249.50507"
           style="font-style:normal;font-variant:normal;font-weight:200;font-stretch:normal;font-size:15px;line-height:100%;font-family:'Titillium Web';-inkscape-font-specification:'Titillium Web, Ultra-Light';text-align:start;writing-mode:lr-tb;text-anchor:start" /></flowRegion><flowPara
         id="flowPara4473" /><flowPara
         id="flowPara4475">Jamal llegó a nuestro país desde Ghana, después de vivir un infierno en Libia con las mafias para cruzar la frontera.	</flowPara><flowPara
         id="flowPara4477">En Novaterra ha descubierto la pasión por cocinar.</flowPara></flowRoot>    <image
       sodipodi:absref="/home/creawww/KGESTION/070_novaterra/diseños/folleto viaje a al dignidad/imagenes/hamal.jpg"
       xlink:href="imagenes/hamal.jpg"
       transform="matrix(1.2583031,0,0,1.2649328,-187.8014,-73.148956)"
       clip-path="url(#clipPath6120)"
       width="454.22726"
       height="302.81818"
       preserveAspectRatio="none"
       id="image4464"
       x="565.65167"
       y="394.58392" />
    <flowRoot
       transform="translate(480.24166,610.72724)"
       style="font-style:normal;font-variant:normal;font-weight:200;font-stretch:normal;font-size:15px;line-height:100%;font-family:'Titillium Web';-inkscape-font-specification:'Titillium Web, Ultra-Light';text-align:start;letter-spacing:0px;word-spacing:-0.01px;writing-mode:lr;text-anchor:start;fill:#000000;fill-opacity:1;stroke:none;stroke-width:1px;stroke-linecap:butt;stroke-linejoin:miter;stroke-opacity:1;"
       id="flowRoot3427"
       xml:space="preserve"><flowRegion
         id="flowRegion3429"><rect
           style="font-style:normal;font-variant:normal;font-weight:200;font-stretch:normal;font-size:15px;line-height:100%;font-family:'Titillium Web';-inkscape-font-specification:'Titillium Web, Ultra-Light';text-align:start;writing-mode:lr;text-anchor:start;"
           y="249.50507"
           x="94.285713"
           height="315.16464"
           width="458.40024"
           id="rect3431" /></flowRegion><flowPara
         id="flowPara3439" /><flowPara
         id="flowPara3441"> Lo que más le gusta es hacer prácticas en Novaterra Catering, y aprender viendo a cocinar a nuestro chef Ricardo. Las clases de castellano no le gustan tanto, pero ha mejorado muchísimo estos meses de curso compartiendo con los compañeros y profesionales.</flowPara></flowRoot>  </g>
</svg>
